<svg version="1.1" id="Layer_1" xmlns="http://www.w3.org/2000/svg" xmlns:xlink="http://www.w3.org/1999/xlink" x="0px" y="0px" width="100%" viewBox="0 0 368 368" enable-background="new 0 0 368 368" xml:space="preserve">

<path fill="#433023" opacity="1.000000" stroke="none" d="
M48.170246,346.750824 
	C36.446213,329.126190 45.145950,309.183044 65.205177,306.596069 
	C67.131454,300.596710 69.166771,294.693329 70.820351,288.684845 
	C71.100342,287.667480 70.001808,285.954559 69.095749,284.973419 
	C48.865486,263.066864 35.240295,237.541580 30.432638,208.197571 
	C20.475025,147.420288 39.009659,96.457535 86.786415,57.298588 
	C118.522034,31.287325 155.884476,20.734518 196.562592,24.207975 
	C267.893311,30.298822 321.721924,82.507385 334.984222,145.645035 
	C345.893219,197.579330 333.215210,243.640045 298.462006,283.639221 
	C296.507721,285.888519 296.053406,287.602692 296.849945,290.621124 
	C300.931183,306.086578 293.123810,320.910706 278.795746,325.205322 
	C270.656799,327.644867 262.962311,326.310913 256.263702,320.956116 
	C253.948380,319.105286 252.158508,318.592621 249.257187,319.974518 
	C232.184601,328.106201 214.217758,332.967926 195.289383,334.258545 
	C193.748566,334.363586 191.713425,335.888092 190.946350,337.312256 
	C184.299835,349.652649 173.838043,355.702820 160.104034,355.784088 
	C128.606888,355.970490 97.107742,355.898560 65.609787,355.804352 
	C58.521957,355.783173 52.962547,352.258301 48.170246,346.750824 
M238.946030,230.111740 
	C236.921432,229.318771 234.899384,227.841873 232.871826,227.834274 
	C195.877884,227.695679 158.883270,227.735504 121.888809,227.730408 
	C118.597664,227.729965 114.982437,227.708069 115.084114,232.220612 
	C115.178764,236.421295 118.372284,237.105621 122.842468,236.863968 
	C159.249573,236.871613 195.656693,236.879761 232.063797,236.884399 
	C233.060516,236.884521 234.087875,236.996414 235.048355,236.799561 
	C238.256577,236.141937 240.106750,234.471939 238.946030,230.111740 
M229.687683,213.543961 
	C229.788559,208.093399 228.112366,205.933182 223.051147,205.920761 
	C206.614517,205.880447 190.177444,206.019119 172.999664,205.922989 
	C169.490677,205.700562 166.499817,204.643906 166.977722,200.387054 
	C167.419647,196.450745 170.579880,196.164612 173.754105,196.169510 
	C185.580551,196.187744 197.407455,196.234573 209.233368,196.152710 
	C215.801392,196.107254 218.824966,191.862061 215.965912,185.903046 
	C214.222260,182.268799 211.303314,179.060349 208.431656,176.131943 
	C200.582077,168.127319 198.204117,159.029114 201.361710,148.205185 
	C202.504913,144.286438 203.049881,140.024628 202.936264,135.945328 
	C202.742310,128.982712 197.300720,122.940720 190.677139,121.261421 
	C190.306610,121.948128 189.509857,122.721230 189.628937,123.308701 
	C191.694321,133.499298 188.029861,141.394302 179.694122,147.047440 
	C175.879105,149.634705 171.248306,151.001068 167.352509,153.492020 
	C162.930939,156.319138 158.219269,159.194763 154.901443,163.120682 
	C150.613144,168.194946 153.562714,173.630829 160.994827,174.298813 
	C164.974869,174.337753 169.018646,173.963776 172.911942,174.564713 
	C175.395676,174.948059 177.656601,176.774979 179.945496,178.726318 
	C179.643127,183.069000 176.864899,184.064865 173.078751,184.036087 
	C163.463913,183.962997 153.834412,183.743515 144.243118,184.225967 
	C142.060562,184.335739 138.964554,186.664520 138.218994,188.684357 
	C137.593185,190.379745 139.412659,193.395767 140.866928,195.270584 
	C141.632980,196.258194 143.934204,196.055023 146.088638,196.911301 
	C146.616394,199.258606 147.144135,201.605911 147.035645,204.312653 
	C142.354996,204.832504 137.685760,205.571732 132.990768,205.815536 
	C127.388466,206.106445 124.423820,207.997559 124.406677,211.901718 
	C124.389946,215.712006 127.581245,217.936081 133.905975,218.013336 
	C163.142975,218.020370 192.379990,218.025848 221.616989,218.036636 
	C224.842453,218.037827 228.057083,218.048767 229.687683,213.543961 
M131.101135,246.148773 
	C129.847458,246.258820 128.593781,246.368866 126.933350,246.514633 
	C127.658386,252.508118 128.605698,258.149902 128.935562,263.827576 
	C129.159195,267.677063 130.626923,269.996582 134.769730,271.381805 
	C140.802521,277.848053 146.835327,284.314301 153.404099,291.355042 
	C164.813477,288.862457 172.827194,290.672913 183.218719,298.700104 
	C183.991196,299.296844 184.881668,300.164825 185.727509,300.176636 
	C193.769760,300.289185 201.814255,300.243774 210.017502,300.243774 
	C205.579254,284.454865 208.598892,277.782501 222.768631,270.827911 
	C223.560074,270.439484 224.577057,269.594452 224.676163,268.853271 
	C225.661804,261.481873 226.476196,254.087601 227.382446,246.327606 
	C195.150345,246.327606 163.524384,246.327606 131.101135,246.148773 
M302.151123,260.617920 
	C347.208038,195.471313 330.892609,106.453773 264.813293,60.428013 
	C201.275162,16.172234 111.757484,30.204571 65.112892,96.495667 
	C21.623760,158.302246 36.880936,237.088943 78.593742,277.514313 
	C89.837280,266.795197 103.186157,262.250610 119.282829,264.846649 
	C118.752861,259.821014 118.254921,255.244965 117.793076,250.665283 
	C117.511238,247.870544 116.598808,245.996033 113.532829,244.813782 
	C108.277618,242.787338 105.502991,238.300186 105.224548,232.749939 
	C104.944427,227.166245 107.520302,222.807449 112.400177,219.936874 
	C113.505379,219.286728 114.667023,218.732513 115.736244,218.169128 
	C113.249458,206.482712 116.154289,201.468643 126.784622,196.577011 
	C128.326752,190.618729 128.426193,184.998550 131.128265,181.258896 
	C133.861115,177.476624 139.170853,175.556320 143.800156,172.527008 
	C143.220306,160.075027 147.025894,153.426544 159.353439,146.811874 
	C162.573975,145.083801 166.071075,143.863663 169.257294,142.081497 
	C171.985382,140.555573 174.760361,138.874527 176.966827,136.704987 
	C181.472809,132.274368 181.684555,125.683159 177.586731,120.904976 
	C175.889847,118.926369 173.348419,117.684959 171.574509,115.755737 
	C169.945343,113.983917 167.564346,111.605362 167.761124,109.729820 
	C168.140762,106.111427 171.682159,105.299110 174.795395,106.209862 
	C182.719543,108.528008 191.026718,110.256378 198.283661,113.972389 
	C210.116653,120.031639 215.650146,131.992554 211.891144,144.721786 
	C208.268936,156.987793 210.537781,166.205322 220.039185,174.585571 
	C225.366150,179.283966 227.320679,185.897141 226.280350,193.248276 
	C226.120636,194.376862 227.556015,196.468567 228.719940,196.924515 
	C235.112869,199.428848 238.754242,203.982544 239.508209,210.679611 
	C239.779312,213.087585 239.156631,215.596207 238.944687,218.026443 
	C239.206970,218.305084 239.385132,218.639313 239.658691,218.763641 
	C245.650528,221.486969 249.302719,225.820633 249.052322,232.697891 
	C248.811142,239.322006 245.105103,243.380981 239.146698,245.746445 
	C238.347046,246.063919 237.253113,246.840286 237.152618,247.529190 
	C236.337143,253.119476 235.726166,258.739594 234.903625,265.594604 
	C236.484573,263.846436 237.142227,263.133911 237.783951,262.407379 
	C248.552292,250.216064 266.621185,250.830795 275.437408,264.517242 
	C279.067566,270.152771 283.590302,273.668640 289.667297,276.864655 
	C293.647278,271.704803 297.695099,266.457031 302.151123,260.617920 
M138.499969,345.816498 
	C146.165710,345.813751 153.836395,345.986389 161.496124,345.770233 
	C175.527115,345.374298 185.501511,333.899811 183.959076,320.190796 
	C182.506073,307.276642 169.930313,298.299591 156.690140,301.124451 
	C152.758545,301.963257 149.091568,304.042236 145.298798,305.540894 
	C136.861450,282.684113 125.325394,272.890106 108.408127,274.271149 
	C100.534073,274.914001 93.524750,277.700867 87.632050,283.031433 
	C77.206810,292.462128 74.897713,304.697876 76.356354,318.327881 
	C73.362045,317.721771 71.110847,317.128937 68.821297,316.827118 
	C60.287655,315.702209 53.308372,321.505920 52.836697,330.024902 
	C52.345856,338.889923 58.611080,345.814728 67.103058,345.804321 
	C71.404228,345.799072 75.705406,345.815521 80.006584,345.815857 
	C99.171036,345.817291 118.335487,345.816467 138.499969,345.816498 
M242.025879,286.360565 
	C241.931503,288.210907 241.837128,290.061249 241.742752,291.911621 
	C241.145432,292.226990 240.548126,292.542389 239.950806,292.857758 
	C237.375305,289.816864 235.094986,286.446472 232.154816,283.812714 
	C227.796371,279.908447 221.490265,282.081940 219.937546,287.660797 
	C218.278030,293.623322 221.986679,298.575500 228.497894,298.716064 
	C235.989624,298.877838 243.494873,298.952393 250.979614,298.672882 
	C254.699112,298.533997 256.442963,299.396759 257.505402,303.357727 
	C259.845032,312.080353 267.792114,316.726990 275.293701,314.535950 
	C281.843201,312.622986 286.683746,305.836945 286.688599,298.561218 
	C286.693634,290.925751 281.949005,283.621826 275.045380,282.417572 
	C270.727448,281.664368 269.503326,279.692932 268.538574,275.886932 
	C266.882843,269.354889 261.205658,265.138306 255.569107,265.367950 
	C249.630844,265.609924 244.343781,270.385071 242.976151,277.046661 
	C242.410690,279.800995 242.347198,282.658417 242.025879,286.360565 
M222.438873,318.009491 
	C229.007919,315.715485 235.576965,313.421478 242.146011,311.127472 
	C242.025940,310.865326 241.905869,310.603149 241.785782,310.341003 
	C225.267731,310.341003 208.749680,310.341003 192.142303,310.341003 
	C193.027435,314.686646 193.841614,318.683868 194.837006,323.570831 
	C203.862640,321.755249 212.754822,319.966492 222.438873,318.009491 
z" data-index="1" style="opacity: 1;"></path>
<path fill="#EC5485" opacity="1.000000" stroke="none" d="
M301.947021,260.913574 
	C297.695099,266.457031 293.647278,271.704803 289.667297,276.864655 
	C283.590302,273.668640 279.067566,270.152771 275.437408,264.517242 
	C266.621185,250.830795 248.552292,250.216064 237.783951,262.407379 
	C237.142227,263.133911 236.484573,263.846436 234.903625,265.594604 
	C235.726166,258.739594 236.337143,253.119476 237.152618,247.529190 
	C237.253113,246.840286 238.347046,246.063919 239.146698,245.746445 
	C245.105103,243.380981 248.811142,239.322006 249.052322,232.697891 
	C249.302719,225.820633 245.650528,221.486969 239.658691,218.763641 
	C239.385132,218.639313 239.206970,218.305084 238.944687,218.026443 
	C239.156631,215.596207 239.779312,213.087585 239.508209,210.679611 
	C238.754242,203.982544 235.112869,199.428848 228.719940,196.924515 
	C227.556015,196.468567 226.120636,194.376862 226.280350,193.248276 
	C227.320679,185.897141 225.366150,179.283966 220.039185,174.585571 
	C210.537781,166.205322 208.268936,156.987793 211.891144,144.721786 
	C215.650146,131.992554 210.116653,120.031639 198.283661,113.972389 
	C191.026718,110.256378 182.719543,108.528008 174.795395,106.209862 
	C171.682159,105.299110 168.140762,106.111427 167.761124,109.729820 
	C167.564346,111.605362 169.945343,113.983917 171.574509,115.755737 
	C173.348419,117.684959 175.889847,118.926369 177.586731,120.904976 
	C181.684555,125.683159 181.472809,132.274368 176.966827,136.704987 
	C174.760361,138.874527 171.985382,140.555573 169.257294,142.081497 
	C166.071075,143.863663 162.573975,145.083801 159.353439,146.811874 
	C147.025894,153.426544 143.220306,160.075027 143.800156,172.527008 
	C139.170853,175.556320 133.861115,177.476624 131.128265,181.258896 
	C128.426193,184.998550 128.326752,190.618729 126.784622,196.577011 
	C116.154289,201.468643 113.249458,206.482712 115.736244,218.169128 
	C114.667023,218.732513 113.505379,219.286728 112.400177,219.936874 
	C107.520302,222.807449 104.944427,227.166245 105.224548,232.749939 
	C105.502991,238.300186 108.277618,242.787338 113.532829,244.813782 
	C116.598808,245.996033 117.511238,247.870544 117.793076,250.665283 
	C118.254921,255.244965 118.752861,259.821014 119.282829,264.846649 
	C103.186157,262.250610 89.837280,266.795197 78.593742,277.514313 
	C36.880936,237.088943 21.623760,158.302246 65.112892,96.495667 
	C111.757484,30.204571 201.275162,16.172234 264.813293,60.428013 
	C330.892609,106.453773 347.208038,195.471313 301.947021,260.913574 
z" data-index="2" style="opacity: 1;"></path>
<path fill="#FDF9CA" opacity="1.000000" stroke="none" d="
M137.999954,345.816467 
	C118.335487,345.816467 99.171036,345.817291 80.006584,345.815857 
	C75.705406,345.815521 71.404228,345.799072 67.103058,345.804321 
	C58.611080,345.814728 52.345856,338.889923 52.836697,330.024902 
	C53.308372,321.505920 60.287655,315.702209 68.821297,316.827118 
	C71.110847,317.128937 73.362045,317.721771 76.356354,318.327881 
	C74.897713,304.697876 77.206810,292.462128 87.632050,283.031433 
	C93.524750,277.700867 100.534073,274.914001 108.408127,274.271149 
	C125.325394,272.890106 136.861450,282.684113 145.301071,305.546936 
	C149.091568,304.042236 152.758545,301.963257 156.690140,301.124451 
	C169.930313,298.299591 182.506073,307.276642 183.959076,320.190796 
	C185.501511,333.899811 175.527115,345.374298 161.496124,345.770233 
	C153.836395,345.986389 146.165710,345.813751 137.999954,345.816467 
z" data-index="3" style="opacity: 1;"></path>
<path fill="#FDF9C9" opacity="1.000000" stroke="none" d="
M131.898407,246.327606 
	C163.524384,246.327606 195.150345,246.327606 227.382446,246.327606 
	C226.476196,254.087601 225.661804,261.481873 224.676163,268.853271 
	C224.577057,269.594452 223.560074,270.439484 222.768631,270.827911 
	C208.598892,277.782501 205.579254,284.454865 210.017502,300.243774 
	C201.814255,300.243774 193.769760,300.289185 185.727509,300.176636 
	C184.881668,300.164825 183.991196,299.296844 183.218719,298.700104 
	C172.827194,290.672913 164.813477,288.862457 153.404099,291.355042 
	C146.835327,284.314301 140.802521,277.848053 134.520691,270.693848 
	C133.480576,262.113098 132.689499,254.220352 131.898407,246.327606 
z" data-index="4" style="opacity: 1;"></path>
<path fill="#FEF6C9" opacity="1.000000" stroke="none" d="
M147.671875,203.953217 
	C147.144135,201.605911 146.616394,199.258606 146.015839,196.298462 
	C148.518234,194.509827 151.054916,192.431534 153.675491,192.319702 
	C163.315582,191.908310 172.987259,192.298004 182.638626,192.053497 
	C185.531540,191.980209 188.674637,191.335892 191.179337,189.983261 
	C192.905807,189.050888 194.883392,186.294357 194.659821,184.634476 
	C194.395660,182.673370 192.204300,180.133636 190.269760,179.425491 
	C187.097855,178.264420 183.459229,178.378403 180.017426,177.954651 
	C177.656601,176.774979 175.395676,174.948059 172.911942,174.564713 
	C169.018646,173.963776 164.974869,174.337753 160.509384,173.773499 
	C159.340546,168.947983 161.419357,165.920685 165.128387,164.544281 
	C170.227280,162.652100 175.505051,161.051727 180.840805,160.028107 
	C191.592621,157.965500 197.189560,151.502991 198.121292,140.631714 
	C198.773727,133.019058 196.161606,127.093536 191.101181,121.851677 
	C197.300720,122.940720 202.742310,128.982712 202.936264,135.945328 
	C203.049881,140.024628 202.504913,144.286438 201.361710,148.205185 
	C198.204117,159.029114 200.582077,168.127319 208.431656,176.131943 
	C211.303314,179.060349 214.222260,182.268799 215.965912,185.903046 
	C218.824966,191.862061 215.801392,196.107254 209.233368,196.152710 
	C197.407455,196.234573 185.580551,196.187744 173.754105,196.169510 
	C170.579880,196.164612 167.419647,196.450745 166.977722,200.387054 
	C166.499817,204.643906 169.490677,205.700562 173.440521,206.365753 
	C176.031998,212.997650 181.230865,214.079147 186.744614,214.118469 
	C200.891373,214.219437 215.039688,214.099411 229.187393,214.067719 
	C228.057083,218.048767 224.842453,218.037827 221.616989,218.036636 
	C192.379990,218.025848 163.142975,218.020370 133.564728,217.609253 
	C135.732895,216.202148 138.169632,214.691345 140.769333,214.319336 
	C144.355225,213.806198 148.158279,214.625549 151.679169,213.924408 
	C153.354446,213.590820 155.565781,211.154129 155.721359,209.499680 
	C155.846024,208.173706 153.395752,206.368378 151.781738,205.198669 
	C150.686264,204.404785 149.060486,204.342621 147.671875,203.953217 
z" data-index="5"></path>
<path fill="#FBF7C8" opacity="1.000000" stroke="none" d="
M242.040649,285.914734 
	C242.347198,282.658417 242.410690,279.800995 242.976151,277.046661 
	C244.343781,270.385071 249.630844,265.609924 255.569107,265.367950 
	C261.205658,265.138306 266.882843,269.354889 268.538574,275.886932 
	C269.503326,279.692932 270.727448,281.664368 275.045380,282.417572 
	C281.949005,283.621826 286.693634,290.925751 286.688599,298.561218 
	C286.683746,305.836945 281.843201,312.622986 275.293701,314.535950 
	C267.792114,316.726990 259.845032,312.080353 257.505402,303.357727 
	C256.442963,299.396759 254.699112,298.533997 250.979614,298.672882 
	C243.494873,298.952393 235.989624,298.877838 228.497894,298.716064 
	C221.986679,298.575500 218.278030,293.623322 219.937546,287.660797 
	C221.490265,282.081940 227.796371,279.908447 232.154816,283.812714 
	C235.094986,286.446472 237.375305,289.816864 239.950806,292.857758 
	C240.548126,292.542389 241.145432,292.226990 241.742752,291.911621 
	C241.837128,290.061249 241.931503,288.210907 242.040649,285.914734 
z" data-index="6" style="opacity: 1;"></path>
<path fill="#F9F4C5" opacity="1.000000" stroke="none" d="
M239.042938,230.884460 
	C240.106750,234.471939 238.256577,236.141937 235.048355,236.799561 
	C234.087875,236.996414 233.060516,236.884521 232.063797,236.884399 
	C195.656693,236.879761 159.249573,236.871613 122.379730,236.412628 
	C122.044823,230.888870 125.588341,230.871384 129.285019,230.873688 
	C165.870987,230.896484 202.456955,230.885712 239.042938,230.884460 
z" data-index="7"></path>
<path fill="#EB5685" opacity="1.000000" stroke="none" d="
M190.889160,121.556549 
	C196.161606,127.093536 198.773727,133.019058 198.121292,140.631714 
	C197.189560,151.502991 191.592621,157.965500 180.840805,160.028107 
	C175.505051,161.051727 170.227280,162.652100 165.128387,164.544281 
	C161.419357,165.920685 159.340546,168.947983 160.060150,173.659332 
	C153.562714,173.630829 150.613144,168.194946 154.901443,163.120682 
	C158.219269,159.194763 162.930939,156.319138 167.352509,153.492020 
	C171.248306,151.001068 175.879105,149.634705 179.694122,147.047440 
	C188.029861,141.394302 191.694321,133.499298 189.628937,123.308701 
	C189.509857,122.721230 190.306610,121.948128 190.889160,121.556549 
z" data-index="8"></path>
<path fill="#EC5585" opacity="1.000000" stroke="none" d="
M179.981461,178.340485 
	C183.459229,178.378403 187.097855,178.264420 190.269760,179.425491 
	C192.204300,180.133636 194.395660,182.673370 194.659821,184.634476 
	C194.883392,186.294357 192.905807,189.050888 191.179337,189.983261 
	C188.674637,191.335892 185.531540,191.980209 182.638626,192.053497 
	C172.987259,192.298004 163.315582,191.908310 153.675491,192.319702 
	C151.054916,192.431534 148.518234,194.509827 145.742645,196.037567 
	C143.934204,196.055023 141.632980,196.258194 140.866928,195.270584 
	C139.412659,193.395767 137.593185,190.379745 138.218994,188.684357 
	C138.964554,186.664520 142.060562,184.335739 144.243118,184.225967 
	C153.834412,183.743515 163.463913,183.962997 173.078751,184.036087 
	C176.864899,184.064865 179.643127,183.069000 179.981461,178.340485 
z" data-index="9"></path>
<path fill="#EC5585" opacity="1.000000" stroke="none" d="
M229.437531,213.805847 
	C215.039688,214.099411 200.891373,214.219437 186.744614,214.118469 
	C181.230865,214.079147 176.031998,212.997650 173.810959,206.448700 
	C190.177444,206.019119 206.614517,205.880447 223.051147,205.920761 
	C228.112366,205.933182 229.788559,208.093399 229.437531,213.805847 
z" data-index="10"></path>
<path fill="#E85382" opacity="1.000000" stroke="none" d="
M222.042938,318.093628 
	C212.754822,319.966492 203.862640,321.755249 194.837006,323.570831 
	C193.841614,318.683868 193.027435,314.686646 192.142303,310.341003 
	C208.749680,310.341003 225.267731,310.341003 241.785782,310.341003 
	C241.905869,310.603149 242.025940,310.865326 242.146011,311.127472 
	C235.576965,313.421478 229.007919,315.715485 222.042938,318.093628 
z" data-index="11"></path>
<path fill="#ED618A" opacity="1.000000" stroke="none" d="
M238.994476,230.498108 
	C202.456955,230.885712 165.870987,230.896484 129.285019,230.873688 
	C125.588341,230.871384 122.044823,230.888870 121.909607,236.343658 
	C118.372284,237.105621 115.178764,236.421295 115.084114,232.220612 
	C114.982437,227.708069 118.597664,227.729965 121.888809,227.730408 
	C158.883270,227.735504 195.877884,227.695679 232.871826,227.834274 
	C234.899384,227.841873 236.921432,229.318771 238.994476,230.498108 
z" data-index="12"></path>
<path fill="#EC5685" opacity="1.000000" stroke="none" d="
M147.353760,204.132935 
	C149.060486,204.342621 150.686264,204.404785 151.781738,205.198669 
	C153.395752,206.368378 155.846024,208.173706 155.721359,209.499680 
	C155.565781,211.154129 153.354446,213.590820 151.679169,213.924408 
	C148.158279,214.625549 144.355225,213.806198 140.769333,214.319336 
	C138.169632,214.691345 135.732895,216.202148 133.099121,217.539062 
	C127.581245,217.936081 124.389946,215.712006 124.406677,211.901718 
	C124.423820,207.997559 127.388466,206.106445 132.990768,205.815536 
	C137.685760,205.571732 142.354996,204.832504 147.353760,204.132935 
z" data-index="13"></path>
<path fill="#E75883" opacity="1.000000" stroke="none" d="
M131.499771,246.238190 
	C132.689499,254.220352 133.480576,262.113098 134.301697,270.457672 
	C130.626923,269.996582 129.159195,267.677063 128.935562,263.827576 
	C128.605698,258.149902 127.658386,252.508118 126.933350,246.514633 
	C128.593781,246.368866 129.847458,246.258820 131.499771,246.238190 
z" data-index="14"></path>
</svg>